<svg width="20" height="21" viewBox="0 0 20 21" fill="none" xmlns="http://www.w3.org/2000/svg">
<path d="M17.625 4.89453H16V16.6564C16 16.9848 16.1054 17.2997 16.2929 17.5319C16.4804 17.7641 16.7348 17.8945 17 17.8945C17.2652 17.8945 17.5196 17.7641 17.7071 17.5319C17.8946 17.2997 18 16.9848 18 16.6564V5.35882C18 5.23568 17.9605 5.11759 17.8902 5.03052C17.8198 4.94345 17.7245 4.89453 17.625 4.89453Z" fill="#18B9AC"/>
<path d="M15.9691 18.8141C15.4954 18.6815 15.0774 18.394 14.7794 17.9956C14.4813 17.5972 14.3195 17.11 14.319 16.6088V3.3231C14.319 3.20944 14.2747 3.10043 14.196 3.02006C14.1172 2.93968 14.0104 2.89453 13.899 2.89453H2.41996C2.30858 2.89453 2.20176 2.93968 2.123 3.02006C2.04425 3.10043 2 3.20944 2 3.3231V16.8945C2 17.4249 2.20648 17.9336 2.57402 18.3087C2.94156 18.6838 3.44005 18.8945 3.95983 18.8945H15.9586C15.9685 18.8949 15.9782 18.8915 15.9858 18.885C15.9934 18.8784 15.9983 18.8692 15.9997 18.8592C16.001 18.8491 15.9986 18.839 15.9929 18.8306C15.9872 18.8223 15.9787 18.8164 15.9691 18.8141ZM4.23981 9.18023V5.75167H7.59953V9.18023H4.23981ZM12.0791 16.0374H4.23981V14.8945H12.0791V16.0374ZM12.0791 13.7517H4.23981V12.6088H12.0791V13.7517ZM12.0791 11.4659H4.23981V10.3231H12.0791V11.4659ZM12.0791 9.18023H8.71943V8.03738H12.0791V9.18023ZM12.0791 6.89452H8.71943V5.75167H12.0791V6.89452Z" fill="#18B9AC"/>
</svg>
