<svg width="20" height="21" viewBox="0 0 20 21" fill="none" xmlns="http://www.w3.org/2000/svg">
<path d="M17.5 15.8939H5C4.77899 15.8939 4.56702 15.9817 4.41074 16.138C4.25446 16.2942 4.16667 16.5062 4.16667 16.7272C4.16667 16.9482 4.25446 17.1602 4.41074 17.3165C4.56702 17.4727 4.77899 17.5605 5 17.5605H17.5V19.2272H5C4.33696 19.2272 3.70107 18.9638 3.23223 18.495C2.76339 18.0261 2.5 17.3903 2.5 16.7272V4.22721C2.5 3.78519 2.67559 3.36126 2.98816 3.0487C3.30072 2.73614 3.72464 2.56055 4.16667 2.56055H17.5V15.8939ZM13.3333 8.39388V6.72721H6.66667V8.39388H13.3333Z" fill="#45B28C"/>
</svg>
