<svg width="20" height="21" viewBox="0 0 20 21" fill="none" xmlns="http://www.w3.org/2000/svg">
<g clip-path="url(#clip0_323_2431)">
<path d="M14.9498 14.9153L10 19.8945L5.05022 14.9153C4.07127 13.9305 3.40459 12.6758 3.1345 11.3099C2.86441 9.94394 3.00304 8.52811 3.53285 7.24143C4.06267 5.95474 4.95988 4.85499 6.11102 4.08125C7.26216 3.30751 8.61553 2.89453 10 2.89453C11.3845 2.89453 12.7378 3.30751 13.889 4.08125C15.0401 4.85499 15.9373 5.95474 16.4671 7.24143C16.997 8.52811 17.1356 9.94394 16.8655 11.3099C16.5954 12.6758 15.9287 13.9305 14.9498 14.9153ZM10 11.5009C10.4126 11.5009 10.8082 11.336 11.0999 11.0426C11.3917 10.7491 11.5556 10.3511 11.5556 9.9361C11.5556 9.52109 11.3917 9.12307 11.0999 8.82962C10.8082 8.53616 10.4126 8.37129 10 8.37129C9.58744 8.37129 9.19178 8.53616 8.90006 8.82962C8.60833 9.12307 8.44444 9.52109 8.44444 9.9361C8.44444 10.3511 8.60833 10.7491 8.90006 11.0426C9.19178 11.336 9.58744 11.5009 10 11.5009Z" fill="#DF0214"/>
</g>
<defs>
<clipPath id="clip0_323_2431">
<rect y="0.894531" width="20" height="20" rx="10" fill="white"/>
</clipPath>
</defs>
</svg>
