<svg width="20" height="21" viewBox="0 0 20 21" fill="none" xmlns="http://www.w3.org/2000/svg">
<path d="M16.25 4.01953C16.25 3.52225 16.4475 3.04534 16.7992 2.69371C17.1508 2.34208 17.6277 2.14453 18.125 2.14453C18.6223 2.14453 19.0992 2.34208 19.4508 2.69371C19.8025 3.04534 20 3.52225 20 4.01953V17.7695C20 18.2668 19.8025 18.7437 19.4508 19.0954C19.0992 19.447 18.6223 19.6445 18.125 19.6445C17.6277 19.6445 17.1508 19.447 16.7992 19.0954C16.4475 18.7437 16.25 18.2668 16.25 17.7695V4.01953ZM15 4.92453C12.4163 6.11203 9.32625 6.77578 6.25 6.99453V14.7908C6.70405 14.8164 7.15749 14.8518 7.61 14.897C10.1762 15.152 12.6575 15.732 15 16.847V4.92453ZM5 14.7258V7.06203C4.15 7.09578 3.25125 7.11578 2.49 7.12828C1.82792 7.13746 1.19595 7.40633 0.730204 7.87698C0.264462 8.34763 0.00223098 8.9824 0 9.64453L0 12.1445C0 13.527 1.12 14.6395 2.4925 14.6558C2.69918 14.6584 2.90585 14.6617 3.1125 14.6658C3.74188 14.6784 4.37109 14.6984 5 14.7258ZM6.7375 16.077C7.09375 16.1033 7.44875 16.1358 7.8 16.1745L8.11625 18.287C8.15066 18.4678 8.14474 18.654 8.09889 18.8322C8.05304 19.0104 7.96841 19.1763 7.85103 19.3181C7.73365 19.4598 7.58643 19.5739 7.41987 19.6521C7.25331 19.7304 7.07153 19.7709 6.8875 19.7708H6.2025C5.95953 19.7708 5.72183 19.6999 5.51847 19.567C5.31512 19.434 5.15493 19.2446 5.0575 19.022L3.415 15.922C4.12031 15.9396 4.82537 15.9663 5.53 16.002C5.93875 16.0233 6.3425 16.0483 6.7375 16.077Z" fill="#FA4778"/>
</svg>
