<svg width="30" height="31" viewBox="0 0 30 31" fill="none" xmlns="http://www.w3.org/2000/svg">
<path d="M15 15.8945C15.9585 15.8945 16.8954 15.6013 17.6924 15.0519C18.4893 14.5025 19.1105 13.7216 19.4773 12.808C19.8441 11.8943 19.94 10.889 19.753 9.91908C19.566 8.94918 19.1045 8.05826 18.4267 7.359C17.749 6.65974 16.8855 6.18353 15.9454 5.99061C15.0054 5.79768 14.031 5.8967 13.1455 6.27514C12.2599 6.65357 11.5031 7.29444 10.9706 8.11668C10.4381 8.93893 10.1538 9.90563 10.1538 10.8945C10.1538 12.2206 10.6644 13.4924 11.5733 14.4301C12.4821 15.3677 13.7147 15.8945 15 15.8945ZM15 17.3231C11.9963 17.3231 6 19.2374 6 23.0374V25.8945H24V23.0374C24 19.2374 18.0037 17.3231 15 17.3231Z" fill="#FF8FC1"/>
</svg>
