<svg width="20" height="21" viewBox="0 0 20 21" fill="none" xmlns="http://www.w3.org/2000/svg">
<path d="M14.9185 5.2293C13.5674 4.14826 11.8884 3.55969 10.1581 3.56055C8.11833 3.56055 6.2132 4.34637 4.78887 5.77338C3.41242 7.15419 2.65807 8.97729 2.6641 10.9055C2.66415 12.3192 3.07918 13.7018 3.85773 14.8819L3.8641 14.8909C3.87347 14.9046 3.88318 14.9184 3.89289 14.9318C3.9026 14.9451 3.91465 14.9626 3.91733 14.9669L3.9247 14.9803C3.96253 15.0473 3.99166 15.129 3.96588 15.2113L3.34914 17.4432C3.32447 17.5262 3.31096 17.6122 3.30896 17.6987C3.30852 17.9264 3.39839 18.145 3.55888 18.3066C3.71937 18.4682 3.93738 18.5595 4.1651 18.5605C4.28543 18.5566 4.40402 18.5306 4.51499 18.4839L6.77469 17.6682L6.80315 17.6572C6.86462 17.6314 6.93068 17.6183 6.99735 17.6187C7.05882 17.6188 7.11974 17.6302 7.17715 17.6522C7.23139 17.6733 7.72391 17.8618 8.24355 18.0071C8.67547 18.1276 9.57413 18.3084 10.2783 18.3084C12.2755 18.3084 14.1404 17.535 15.5292 16.1301C16.906 14.7359 17.6641 12.8826 17.6641 10.9095C17.6642 10.4031 17.6106 9.89799 17.504 9.40285C17.1578 7.77495 16.2397 6.29236 14.9185 5.2293ZM6.9498 12.132C6.73789 12.132 6.53074 12.0691 6.35455 11.9514C6.17835 11.8337 6.04103 11.6663 5.95993 11.4706C5.87884 11.2748 5.85762 11.0594 5.89896 10.8515C5.9403 10.6437 6.04235 10.4528 6.19219 10.3029C6.34203 10.1531 6.53294 10.051 6.74078 10.0097C6.94861 9.96836 7.16404 9.98958 7.35982 10.0707C7.5556 10.1518 7.72293 10.2891 7.84066 10.4653C7.95839 10.6415 8.02123 10.8486 8.02123 11.0605C8.02123 11.3447 7.90835 11.6172 7.70741 11.8182C7.50648 12.0191 7.23396 12.132 6.9498 12.132ZM10.1641 12.132C9.95217 12.132 9.74502 12.0691 9.56883 11.9514C9.39263 11.8337 9.2553 11.6663 9.17421 11.4706C9.09312 11.2748 9.0719 11.0594 9.11324 10.8515C9.15458 10.6437 9.25663 10.4528 9.40647 10.3029C9.55631 10.1531 9.74722 10.051 9.95506 10.0097C10.1629 9.96836 10.3783 9.98958 10.5741 10.0707C10.7699 10.1518 10.9372 10.2891 11.0549 10.4653C11.1727 10.6415 11.2355 10.8486 11.2355 11.0605C11.2355 11.3447 11.1226 11.6172 10.9217 11.8182C10.7208 12.0191 10.4482 12.132 10.1641 12.132ZM13.3784 12.132C13.1664 12.132 12.9593 12.0691 12.7831 11.9514C12.6069 11.8337 12.4696 11.6663 12.3885 11.4706C12.3074 11.2748 12.2862 11.0594 12.3275 10.8515C12.3689 10.6437 12.4709 10.4528 12.6207 10.3029C12.7706 10.1531 12.9615 10.051 13.1693 10.0097C13.3772 9.96836 13.5926 9.98958 13.7884 10.0707C13.9842 10.1518 14.1515 10.2891 14.2692 10.4653C14.3869 10.6415 14.4498 10.8486 14.4498 11.0605C14.4498 11.3447 14.3369 11.6172 14.136 11.8182C13.935 12.0191 13.6625 12.132 13.3784 12.132Z" fill="#195A94"/>
</svg>
