<svg width="18" height="24" viewBox="0 0 18 24" fill="none" xmlns="http://www.w3.org/2000/svg">
                        <path d="M14 5.75C14 3 11.75 0.75 9 0.75C6.25 0.75 4 3 4 5.75C4 8.5 6.25 10.75 9 10.75C11.75 10.75 14 8.5 14 5.75ZM6.5 5.75C6.5 4.375 7.625 3.25 9 3.25C10.375 3.25 11.5 4.375 11.5 5.75C11.5 7.125 10.375 8.25 9 8.25C7.625 8.25 6.5 7.125 6.5 5.75ZM7.75 17H6.5C5.75 17 5.25 17.5 5.25 18.25C5.25 19 5.75 19.5 6.5 19.5H7.75C8.5 19.5 9 19 9 18.25C9 17.5 8.5 17 7.75 17Z" fill="#18B9AC" />
                        <path d="M0.748257 19.25L0.248257 21.75C0.123257 22.125 0.248257 22.5 0.498257 22.75C0.748257 23.125 1.12326 23.25 1.49826 23.25H16.4983C16.8733 23.25 17.2483 23.125 17.4983 22.75C17.7483 22.5 17.8733 22.125 17.7483 21.75L17.2483 19.25C16.7483 15.125 13.2483 12 8.99826 12C4.74826 12 1.24826 15.125 0.748257 19.25ZM3.24826 19.625C3.62326 16.75 6.12326 14.5 8.99826 14.5C11.8733 14.5 14.3733 16.75 14.7483 19.625L14.9983 20.75H2.99826L3.24826 19.625Z" fill="#18B9AC" />
                    </svg>