<svg width="20" height="21" viewBox="0 0 20 21" fill="none" xmlns="http://www.w3.org/2000/svg">
<path d="M15.25 8.9137H16V17.0618H4V8.9137H4.75V7.43222C4.75 5.38777 6.43 3.72852 8.5 3.72852C9.0325 3.72852 9.5425 3.83963 10 4.03963C10.4575 3.83963 10.9675 3.72852 11.5 3.72852C13.57 3.72852 15.25 5.38777 15.25 7.43222V8.9137ZM6.25 7.43222V8.9137H7.75V7.43222C7.75 6.59518 8.0425 5.83222 8.515 5.21H8.5C7.2625 5.21 6.25 6.21 6.25 7.43222ZM13.75 8.9137V7.43222C13.75 6.21 12.7375 5.21 11.5 5.21H11.485C11.9575 5.83222 12.25 6.59518 12.25 7.43222V8.9137H13.75ZM10 5.78777C9.5425 6.19518 9.25 6.78037 9.25 7.43222V8.9137H10.75V7.43222C10.75 6.78037 10.4575 6.19518 10 5.78777Z" fill="#815B34"/>
</svg>
