<svg width="20" height="21" viewBox="0 0 20 21" fill="none" xmlns="http://www.w3.org/2000/svg">
<g clip-path="url(#clip0_323_2357)">
<path d="M18.1 16.0953H16.3V13.2459C16.3 12.994 16.2052 12.7524 16.0364 12.5743C15.8676 12.3962 15.6387 12.2961 15.4 12.2961H10.9V9.72212L11.917 10.2825C12.0653 10.3644 12.2323 10.401 12.3993 10.3882C12.5662 10.3754 12.7265 10.3138 12.862 10.2102C12.9976 10.1066 13.1031 9.96514 13.1667 9.80174C13.2303 9.63834 13.2494 9.45946 13.222 9.28521L12.862 7.03417L14.41 5.429C14.5272 5.30817 14.611 5.15585 14.6522 4.98847C14.6935 4.82108 14.6906 4.645 14.644 4.4792C14.5918 4.31039 14.4959 4.1604 14.367 4.04624C14.2382 3.93208 14.0816 3.85832 13.915 3.83333L11.8 3.4819L10.81 1.43033C10.7363 1.26974 10.6212 1.13431 10.478 1.03955C10.3347 0.94479 10.1691 0.894531 10 0.894531C9.83093 0.894531 9.66528 0.94479 9.52202 1.03955C9.37876 1.13431 9.2637 1.26974 9.19 1.43033L8.2 3.4819L6.049 3.81434C5.88243 3.83932 5.72583 3.91308 5.59698 4.02724C5.46812 4.1414 5.37216 4.2914 5.32 4.4602C5.27337 4.626 5.27052 4.80209 5.31176 4.96947C5.35299 5.13685 5.43675 5.28918 5.554 5.41001L7.138 7.03417L6.778 9.28521C6.75056 9.45946 6.76972 9.63834 6.83331 9.80174C6.89689 9.96514 7.0024 10.1066 7.13797 10.2102C7.27354 10.3138 7.43379 10.3754 7.60074 10.3882C7.76768 10.401 7.93469 10.3644 8.083 10.2825L9.1 9.72212V12.2961H4.6C4.36131 12.2961 4.13239 12.3962 3.9636 12.5743C3.79482 12.7524 3.7 12.994 3.7 13.2459V16.0953H1.9C1.66131 16.0953 1.43239 16.1954 1.2636 16.3735C1.09482 16.5516 1 16.7932 1 17.0451V18.9447C1 19.1966 1.09482 19.4382 1.2636 19.6163C1.43239 19.7945 1.66131 19.8945 1.9 19.8945C2.13869 19.8945 2.36761 19.7945 2.5364 19.6163C2.70518 19.4382 2.8 19.1966 2.8 18.9447V17.9949H6.4V18.9447C6.4 19.1966 6.49482 19.4382 6.6636 19.6163C6.83239 19.7945 7.06131 19.8945 7.3 19.8945C7.53869 19.8945 7.76761 19.7945 7.9364 19.6163C8.10518 19.4382 8.2 19.1966 8.2 18.9447V17.0451C8.2 16.7932 8.10518 16.5516 7.9364 16.3735C7.76761 16.1954 7.53869 16.0953 7.3 16.0953H5.5V14.1957H14.5V16.0953H12.7C12.4613 16.0953 12.2324 16.1954 12.0636 16.3735C11.8948 16.5516 11.8 16.7932 11.8 17.0451V18.9447C11.8 19.1966 11.8948 19.4382 12.0636 19.6163C12.2324 19.7945 12.4613 19.8945 12.7 19.8945C12.9387 19.8945 13.1676 19.7945 13.3364 19.6163C13.5052 19.4382 13.6 19.1966 13.6 18.9447V17.9949H17.2V18.9447C17.2 19.1966 17.2948 19.4382 17.4636 19.6163C17.6324 19.7945 17.8613 19.8945 18.1 19.8945C18.3387 19.8945 18.5676 19.7945 18.7364 19.6163C18.9052 19.4382 19 19.1966 19 18.9447V17.0451C19 16.7932 18.9052 16.5516 18.7364 16.3735C18.5676 16.1954 18.3387 16.0953 18.1 16.0953ZM10 7.19564C9.85227 7.19642 9.707 7.23556 9.577 7.30962L8.857 7.70854L8.992 6.85371C9.01562 6.70251 9.00421 6.54752 8.95876 6.40197C8.91331 6.25642 8.83517 6.12465 8.731 6.01788L8.146 5.41001L8.956 5.28653C9.10091 5.2661 9.23892 5.20872 9.3581 5.11936C9.47728 5.02999 9.57404 4.91133 9.64 4.77364L10 3.9948L10.36 4.77364C10.426 4.91133 10.5227 5.02999 10.6419 5.11936C10.7611 5.20872 10.8991 5.2661 11.044 5.28653L11.854 5.41001L11.269 6.01788C11.1648 6.12465 11.0867 6.25642 11.0412 6.40197C10.9958 6.54752 10.9844 6.70251 11.008 6.85371L11.143 7.70854L10.423 7.30962C10.293 7.23556 10.1477 7.19642 10 7.19564Z" fill="#FF8553"/>
</g>
<defs>
<clipPath id="clip0_323_2357">
<rect width="20" height="20" fill="white" transform="translate(0 0.894531)"/>
</clipPath>
</defs>
</svg>
