<svg width="20" height="21" viewBox="0 0 20 21" fill="none" xmlns="http://www.w3.org/2000/svg">
<path d="M5.94118 10.033H3.6269C3.19833 10.033 2.85547 10.3758 2.85547 10.8044V15.4901C2.85547 15.9187 3.19833 16.2616 3.6269 16.2616H5.94118C6.36975 16.2616 6.71261 15.9187 6.71261 15.4901V10.8044C6.71261 10.3758 6.36975 10.033 5.94118 10.033ZM11.1698 8.23298H8.85547C8.4269 8.23298 8.08404 8.57584 8.08404 9.00441V15.4901C8.08404 15.9187 8.4269 16.2616 8.85547 16.2616H11.1698C11.5983 16.2616 11.9412 15.9187 11.9412 15.4901V9.00441C11.9126 8.57584 11.5698 8.23298 11.1698 8.23298ZM16.3698 3.94727H14.0555C13.6269 3.94727 13.284 4.29012 13.284 4.71869V15.4901C13.284 15.9187 13.6269 16.2616 14.0555 16.2616H16.3698C16.7983 16.2616 17.1412 15.9187 17.1412 15.4901V4.69012C17.1412 4.29012 16.7983 3.94727 16.3698 3.94727Z" fill="#FA4778"/>
</svg>
