<svg width="20" height="21" viewBox="0 0 20 21" fill="none" xmlns="http://www.w3.org/2000/svg">
<path d="M1.875 13.8398V5.71484C1.54348 5.71484 1.22554 5.84654 0.991117 6.08096C0.756696 6.31538 0.625 6.63332 0.625 6.96484V15.7148C0.625 16.0464 0.756696 16.3643 0.991117 16.5987C1.22554 16.8331 1.54348 16.9648 1.875 16.9648H7.7375C6.56678 16.1515 5.1755 15.7154 3.75 15.7148C3.25272 15.7148 2.77581 15.5173 2.42417 15.1657C2.07254 14.814 1.875 14.3371 1.875 13.8398ZM18.125 5.71484V13.8398C18.125 14.3371 17.9275 14.814 17.5758 15.1657C17.2242 15.5173 16.7473 15.7148 16.25 15.7148C14.8245 15.7154 13.4332 16.1515 12.2625 16.9648H18.125C18.4565 16.9648 18.7745 16.8331 19.0089 16.5987C19.2433 16.3643 19.375 16.0464 19.375 15.7148V6.96484C19.375 6.63332 19.2433 6.31538 19.0089 6.08096C18.7745 5.84654 18.4565 5.71484 18.125 5.71484Z" fill="#F7931A"/>
<path d="M3.75 3.21484C3.58424 3.21484 3.42527 3.28069 3.30806 3.3979C3.19085 3.51511 3.125 3.67408 3.125 3.83984V13.8398C3.125 14.0056 3.19085 14.1646 3.30806 14.2818C3.42527 14.399 3.58424 14.4648 3.75 14.4648C5.63027 14.4668 7.45441 15.1057 8.925 16.2773L9.375 16.6398V3.32734C9.17458 3.25458 8.96321 3.21653 8.75 3.21484H3.75ZM16.875 13.8398V3.83984C16.875 3.67408 16.8092 3.51511 16.6919 3.3979C16.5747 3.28069 16.4158 3.21484 16.25 3.21484H11.25C11.0368 3.21653 10.8254 3.25458 10.625 3.32734V16.6398L11.075 16.2773C12.5456 15.1057 14.3697 14.4668 16.25 14.4648C16.4158 14.4648 16.5747 14.399 16.6919 14.2818C16.8092 14.1646 16.875 14.0056 16.875 13.8398Z" fill="#F7931A"/>
</svg>
