<svg width="20" height="21" viewBox="0 0 20 21" fill="none" xmlns="http://www.w3.org/2000/svg">
<path d="M16.2857 3.89453H3.71429C2.76786 3.89453 2 4.56641 2 5.39453V16.3945C2 17.2227 2.76786 17.8945 3.71429 17.8945H16.2857C17.2321 17.8945 18 17.2227 18 16.3945V5.39453C18 4.56641 17.2321 3.89453 16.2857 3.89453ZM7.71429 14.3945C7.71429 14.6708 7.45857 14.8945 7.14286 14.8945H6C5.68429 14.8945 5.42857 14.6708 5.42857 14.3945V10.3945C5.42857 10.1183 5.68429 9.89453 6 9.89453H7.14286C7.45857 9.89453 7.71429 10.1183 7.71429 10.3945V14.3945ZM11.1429 14.3945C11.1429 14.6708 10.8871 14.8945 10.5714 14.8945H9.42857C9.11286 14.8945 8.85714 14.6708 8.85714 14.3945V7.39453C8.85714 7.11828 9.11286 6.89453 9.42857 6.89453H10.5714C10.8871 6.89453 11.1429 7.11828 11.1429 7.39453V14.3945ZM14.5714 14.3945C14.5714 14.6708 14.3157 14.8945 14 14.8945H12.8571C12.5414 14.8945 12.2857 14.6708 12.2857 14.3945V12.3945C12.2857 12.1183 12.5414 11.8945 12.8571 11.8945H14C14.3157 11.8945 14.5714 12.1183 14.5714 12.3945V14.3945Z" fill="#B484E8"/>
</svg>
