<svg width="20" height="21" viewBox="0 0 20 21" fill="none" xmlns="http://www.w3.org/2000/svg">
<path d="M14 14.6848L12.9958 13.6552C12.7573 13.3786 12.4613 13.1656 12.1315 13.0334C11.8018 12.9011 11.4475 12.8533 11.0973 12.8938C10.7471 12.9342 10.4106 13.0619 10.1151 13.2664C9.81955 13.4709 9.57315 13.7466 9.39575 14.0712L6.455 19H3.5C3.10218 19 2.72064 18.8314 2.43934 18.5314C2.15804 18.2313 2 17.8243 2 17.4V9.4C2 8.97565 2.15804 8.56869 2.43934 8.26863C2.72064 7.96857 3.10218 7.8 3.5 7.8H12.5C12.8978 7.8 13.2794 7.96857 13.5607 8.26863C13.842 8.56869 14 8.97565 14 9.4V14.6848ZM14 16.8864V17.4C14 17.8243 13.842 18.2313 13.5607 18.5314C13.2794 18.8314 12.8978 19 12.5 19H8.384L10.6917 14.8768C10.7508 14.7685 10.8329 14.6766 10.9314 14.6084C11.0299 14.5402 11.1421 14.4976 11.2588 14.484C11.3755 14.4705 11.4936 14.4864 11.6036 14.5304C11.7135 14.5745 11.8122 14.6454 11.8918 14.7376L14 16.8864ZM6.5 15C7.09674 15 7.66903 14.7471 8.09099 14.2971C8.51295 13.847 8.75 13.2365 8.75 12.6C8.75 11.9635 8.51295 11.353 8.09099 10.9029C7.66903 10.4529 7.09674 10.2 6.5 10.2C5.90326 10.2 5.33097 10.4529 4.90901 10.9029C4.48705 11.353 4.25 11.9635 4.25 12.6C4.25 13.2365 4.48705 13.847 4.90901 14.2971C5.33097 14.7471 5.90326 15 6.5 15ZM5 7V4.6C5 4.17565 5.15804 3.76869 5.43934 3.46863C5.72064 3.16857 6.10218 3 6.5 3H15.5C15.8978 3 16.2794 3.16857 16.5607 3.46863C16.842 3.76869 17 4.17565 17 4.6V10.008L15.9957 8.8552C15.6263 8.42632 15.1233 8.15535 14.5805 8.0928C14.306 7.4456 13.73 7 13.0625 7H11.6225C11.4675 6.53157 11.1802 6.12595 10.8001 5.83903C10.4199 5.55212 9.96568 5.39804 9.5 5.39804C9.03432 5.39804 8.5801 5.55212 8.19995 5.83903C7.8198 6.12595 7.53245 6.53157 7.3775 7H5ZM14.75 14.2V9.8096C14.802 9.84584 14.8497 9.88883 14.8917 9.9376L17 12.3288V12.6C17 13.0243 16.842 13.4313 16.5607 13.7314C16.2794 14.0314 15.8978 14.2 15.5 14.2H14.75Z" fill="#10AD62"/>
</svg>
