<svg width="20" height="21" viewBox="0 0 20 21" fill="none" xmlns="http://www.w3.org/2000/svg">
<path d="M19.7591 13.3511L15.4351 9.07297C15.1192 8.76323 14.7357 8.52835 14.3138 8.38612C13.8919 8.2439 13.4427 8.19807 13.0001 8.25212C12.5575 8.30616 12.1333 8.45866 11.7595 8.69804C11.3857 8.93743 11.0722 9.25742 10.8428 9.63375L5.14211 18.6159H3.11328C2.33421 18.6159 1.58704 18.3113 1.03616 17.7692C0.485267 17.2271 0.175781 16.4919 0.175781 15.7253L0.175781 6.08984C0.175781 5.3232 0.485267 4.58796 1.03616 4.04586C1.58704 3.50377 2.33421 3.19922 3.11328 3.19922H16.8216C17.6007 3.19922 18.3479 3.50377 18.8987 4.04586C19.4496 4.58796 19.7591 5.3232 19.7591 6.08984V13.3511ZM19.7483 15.9758C19.6846 16.6964 19.3487 17.3673 18.8069 17.8561C18.265 18.3448 17.5567 18.616 16.8216 18.6159H7.65661L12.5221 10.6252C12.5985 10.4998 12.7029 10.3931 12.8274 10.3132C12.9519 10.2334 13.0933 10.1825 13.2408 10.1644C13.3883 10.1463 13.538 10.1614 13.6787 10.2087C13.8193 10.256 13.9472 10.3342 14.0525 10.4373L19.7483 15.9758ZM6.05078 11.8711C6.82985 11.8711 7.57702 11.5665 8.12791 11.0244C8.6788 10.4824 8.98828 9.74711 8.98828 8.98047C8.98828 8.21383 8.6788 7.47859 8.12791 6.93649C7.57702 6.39439 6.82985 6.08984 6.05078 6.08984C5.27171 6.08984 4.52454 6.39439 3.97365 6.93649C3.42277 7.47859 3.11328 8.21383 3.11328 8.98047C3.11328 9.74711 3.42277 10.4824 3.97365 11.0244C4.52454 11.5665 5.27171 11.8711 6.05078 11.8711Z" fill="#56ACFB"/>
</svg>
