<svg width="20" height="20" viewBox="0 0 20 20" fill="none" xmlns="http://www.w3.org/2000/svg">
<path d="M16.6901 6.00785L12.8415 2.28257C12.6075 2.05488 12.2881 1.92522 11.9592 1.92522L4.71102 1.90625C3.83188 1.90625 3.11719 2.61462 3.11719 3.48744V16.5101C3.11719 17.3671 3.85402 18.0944 4.72683 18.0944H15.4473C16.3043 18.0944 17 17.3829 17 16.5069V6.76365C17 6.46955 16.8893 6.20075 16.6901 6.00785ZM12.8257 4.0282L14.8148 5.95092H13.1704C12.9869 5.95092 12.8257 5.80862 12.8257 5.64734V4.0282ZM15.4473 16.8295H4.72683C4.54974 16.8295 4.38214 16.6745 4.38214 16.5069V3.48744C4.38214 3.31983 4.53709 3.1712 4.71102 3.1712L11.5607 3.19017V5.64734C11.5607 6.51066 12.2817 7.21587 13.1704 7.21587H15.7351V16.5069C15.7351 16.665 15.6275 16.8295 15.4473 16.8295Z" fill="#56ACFB"/>
<path d="M5.86914 10.3473C5.86914 10.6952 6.15375 10.9798 6.50161 10.9798H12.0358C12.3836 10.9798 12.6682 10.6952 12.6682 10.3473C12.6682 9.99946 12.3836 9.71484 12.0358 9.71484H6.50161C6.15375 9.71484 5.86914 9.99946 5.86914 10.3473Z" fill="#56ACFB"/>
<path d="M6.46841 8.44854H10.1368C10.4846 8.44854 10.7692 8.16393 10.7692 7.81607C10.7692 7.46821 10.4846 7.18359 10.1368 7.18359H6.46841C6.12055 7.18359 5.83594 7.46821 5.83594 7.81607C5.83594 8.16393 6.12055 8.44854 6.46841 8.44854Z" fill="#56ACFB"/>
<path d="M13.617 12.2422H6.50161C6.15375 12.2422 5.86914 12.5268 5.86914 12.8747C5.86914 13.2225 6.15375 13.5071 6.50161 13.5071H13.617C13.9648 13.5071 14.2494 13.2225 14.2494 12.8747C14.2494 12.5268 13.9648 12.2422 13.617 12.2422Z" fill="#56ACFB"/>
</svg>
